#define audio_volume_medium_width 24
#define audio_volume_medium_height 24
static unsigned char audio_volume_medium_bits[] = {
   0x00, 0x00, 0x00, 0x00, 0x00, 0x00, 0x00, 0x00, 0x00, 0x00, 0x00, 0x00,
   0x00, 0x00, 0x00, 0x00, 0x00, 0x00, 0x00, 0x0c, 0x00, 0x00, 0x0e, 0x00,
   0x00, 0x0f, 0x00, 0xe0, 0x4f, 0x00, 0xe0, 0x4f, 0x00, 0xe0, 0xcf, 0x00,
   0xe0, 0xcf, 0x00, 0xe0, 0x4f, 0x00, 0xe0, 0x4f, 0x00, 0x00, 0x0f, 0x00,
   0x00, 0x0e, 0x00, 0x00, 0x0c, 0x00, 0x00, 0x00, 0x00, 0x00, 0x00, 0x00,
   0x00, 0x00, 0x00, 0x00, 0x00, 0x00, 0x00, 0x00, 0x00, 0x00, 0x00, 0x00 };
