#define audio_volume_low_width 24
#define audio_volume_low_height 24
static unsigned char audio_volume_low_bits[] = {
   0x00, 0x00, 0x00, 0x00, 0x00, 0x00, 0x00, 0x00, 0x00, 0x00, 0x00, 0x00,
   0x00, 0x00, 0x00, 0x00, 0x00, 0x00, 0x00, 0x0c, 0x00, 0x00, 0x0e, 0x00,
   0x00, 0x0f, 0x00, 0xe0, 0x0f, 0x00, 0xe0, 0x0f, 0x00, 0xe0, 0x0f, 0x00,
   0xe0, 0x0f, 0x00, 0xe0, 0x0f, 0x00, 0xe0, 0x0f, 0x00, 0x00, 0x0f, 0x00,
   0x00, 0x0e, 0x00, 0x00, 0x0c, 0x00, 0x00, 0x00, 0x00, 0x00, 0x00, 0x00,
   0x00, 0x00, 0x00, 0x00, 0x00, 0x00, 0x00, 0x00, 0x00, 0x00, 0x00, 0x00 };
