#define audio_volume_high_width 24
#define audio_volume_high_height 24
static unsigned char audio_volume_high_bits[] = {
   0x00, 0x00, 0x00, 0x00, 0x00, 0x00, 0x00, 0x00, 0x00, 0x00, 0x00, 0x00,
   0x00, 0x00, 0x00, 0x00, 0x40, 0x00, 0x00, 0xcc, 0x01, 0x00, 0x0e, 0x03,
   0x00, 0x0f, 0x02, 0xe0, 0x4f, 0x06, 0xe0, 0x4f, 0x04, 0xe0, 0xcf, 0x04,
   0xe0, 0xcf, 0x04, 0xe0, 0x4f, 0x04, 0xe0, 0x4f, 0x06, 0x00, 0x0f, 0x02,
   0x00, 0x0e, 0x03, 0x00, 0xcc, 0x01, 0x00, 0x40, 0x00, 0x00, 0x00, 0x00,
   0x00, 0x00, 0x00, 0x00, 0x00, 0x00, 0x00, 0x00, 0x00, 0x00, 0x00, 0x00 };
