#define keyboard_width 20
#define keyboard_height 14
static unsigned char keyboard_bits[] = {
   0xff, 0xff, 0x0f, 0xff, 0xff, 0x0f, 0xff, 0xff, 0x0f, 0x27, 0x49, 0x0e,
   0x27, 0x49, 0x0e, 0xff, 0xff, 0x0f, 0xff, 0xff, 0x0f, 0x9f, 0x24, 0x0f,
   0x9f, 0x24, 0x0f, 0xff, 0xff, 0x0f, 0xff, 0xff, 0x0f, 0x07, 0x00, 0x0e,
   0x07, 0x00, 0x0e, 0xff, 0xff, 0x0f };
